<?xml version="1.0" encoding="UTF-8"?>
<!-- Generator: Adobe Illustrator 21.1.0, SVG Export Plug-In . SVG Version: 6.00 Build 0)  -->
<svg version="1.1" id="Livello_1" xmlns:cc="http://creativecommons.org/ns#" xmlns:dc="http://purl.org/dc/elements/1.1/" xmlns:rdf="http://www.w3.org/1999/02/22-rdf-syntax-ns#" xmlns:svg="http://www.w3.org/2000/svg" xmlns="http://www.w3.org/2000/svg" xmlns:xlink="http://www.w3.org/1999/xlink" x="0px" y="0px" viewBox="0 0 278.9 86.2" style="enable-background:new 0 0 278.9 86.2;" xml:space="preserve">
<style type="text/css">
	.st0{fill:none;}
	.st1{fill:url(#polygon2993_1_);}
	.st2{fill:#FFFFFF;}
	.st3{fill:url(#rect3046_1_);}
</style>
<rect id="rect2986" x="0.1" y="-99.7" class="st0" width="283.5" height="283.5"/>
<radialGradient id="polygon2993_1_" cx="96.0471" cy="-619.2319" r="45.6184" gradientTransform="matrix(1 0 0 -1 -49.2197 -595.7395)" gradientUnits="userSpaceOnUse">
	<stop offset="0" style="stop-color:#FFFFFF"/>
	<stop offset="1" style="stop-color:#00684A"/>
</radialGradient>
<polygon id="polygon2993" class="st1" points="23.5,86.2 0,78.4 0,7.8 23.5,0 "/>
<g id="g2995" transform="translate(-32.500002,-18.342)">
	<path id="path2997" d="M145.1,67.9v0.8h-6.8v-0.8h2.3V53.5l-5.9,14.9l-0.4,0l-5.4-14.9v12.3c0,0.8,0.2,1.5,0.6,1.9   c0.2,0.2,0.7,0.2,1.7,0.2v0.8h-5.4v-0.8c0.9,0,1.5-0.1,1.6-0.2c0.5-0.4,0.7-1,0.7-1.9V53.1c0-0.4-0.3-0.6-0.7-0.6h-1.4v-0.8h4.8   l4.5,12.8l5.2-12.8h4.7v0.8h-2.3v15.4H145.1L145.1,67.9z"/>
	<path id="path2999" d="M154.9,67.9v0.8h-7v-0.8h2.3V52.5h-2.3v-0.8h7v0.8h-2.3v15.4H154.9z"/>
	<path id="path3001" d="M173.4,51.8v0.8c-0.9,0-1.5,0.1-1.7,0.2c-0.4,0.4-0.6,1.1-0.6,1.9l0.1,14.4h-0.6l-10.4-16v12.7   c0,0.9,0.2,1.5,0.6,1.9c0.2,0.2,0.7,0.2,1.7,0.2v0.8H157v-0.8c0.9,0,1.5-0.1,1.6-0.2c0.5-0.4,0.7-1,0.7-1.9V53.1   c0-0.4-0.3-0.6-0.7-0.6h-1.4v-0.8h4.9l8.1,12.6v-9.7c0-0.8-0.2-1.5-0.7-1.9c-0.2-0.1-0.7-0.2-1.6-0.2v-0.8   C168,51.8,173.4,51.8,173.4,51.8z"/>
	<path id="path3003" d="M182.2,67.9v0.8h-7v-0.8h2.3V52.5h-2.3v-0.8h7v0.8h-2.3v15.4H182.2z"/>
	<path id="path3005" d="M195.4,63.3c0,1.9-0.8,3.3-2.3,4.3c-1.3,0.9-3,1.3-4.9,1.3c-1.2,0-2.5-0.3-4-0.8l0-3.9h0.7   c0.1,1.3,0.5,2.2,1.2,2.8c0.3,0.3,0.8,0.5,1.4,0.7c0.6,0.2,1.2,0.3,1.6,0.2c1.1,0,2.1-0.3,3-0.9c0.8-0.6,1.3-1.4,1.3-2.4   c0-1.1-0.4-1.9-1.1-2.6c-0.7-0.6-1.8-1-3.1-1.2c-3.5-0.4-5.2-1.9-5.2-4.4c0-1.7,0.7-3.1,2-4c1.1-0.8,2.5-1.2,4.1-1.2   c0.5,0,1,0.1,1.7,0.2c0.7,0.1,1.1,0.2,1.3,0.2c0.2,0,0.3-0.1,0.4-0.4h0.7v4.4h-0.7c-0.1-1.2-0.5-2.1-1.1-2.6   c-0.6-0.5-1.5-0.8-2.7-0.8c-2.4,0-3.6,1.1-3.5,3.2c0,1.9,1.3,3,3.9,3.2C193.6,59.2,195.4,60.7,195.4,63.3L195.4,63.3z"/>
	<path id="path3007" d="M211.7,51.8l0.1,5H211c-0.1-1.4-0.5-2.4-1.1-3.1c-0.6-0.7-1.8-1-3.4-1.1l-1.1,0v15.4h2.3v0.8h-6.8v-0.8h2.3   V52.5l-1.1,0c-1.6,0.1-2.7,0.4-3.3,1c-0.6,0.6-1,1.7-1.2,3.1h-0.7l0-5H211.7z"/>
	<path id="path3009" d="M227.3,62.8h0.8l-0.3,5.9h-14.3v-0.8h2.3V52.5h-2.3v-0.8h13.9l0.1,5h-0.8c-0.1-1.4-0.5-2.5-1.2-3.1   c-0.7-0.7-1.8-1-3.3-1l-4.2,0v7.1h3c0.7,0,1.2-0.2,1.6-0.6c0.4-0.5,0.6-1.3,0.6-2.3h0.8v6.8h-0.8c0-1-0.2-1.7-0.6-2.3   c-0.4-0.5-0.9-0.8-1.5-0.8h-3v7.4l4.6-0.1c0.5,0,1-0.1,1.7-0.4c0.6-0.2,1.1-0.5,1.4-0.8C226.7,65.7,227.2,64.4,227.3,62.8z"/>
	<path id="path3011" d="M241,67.4l-4.7-6.7h-1.5l0,7.3h2.3v0.8h-6.8v-0.8h2.3V52.5h-2.3v-0.8h7.4c2,0,3.5,0.4,4.5,1.2   c1,0.8,1.5,1.8,1.5,3.1c0,1.3-0.5,2.4-1.4,3.2c-0.9,0.7-2,1.2-3.5,1.3l5,6.8c0.3,0.3,0.8,0.5,1.7,0.6v0.7c-1.2,0-3.1,0-5.7,0l0-0.8   h0.7c0.2-0.1,0.3-0.1,0.3-0.3C241.1,67.5,241,67.4,241,67.4z M236.9,59.9c3,0,4.4-1.3,4.4-3.9c-0.1-2.4-1.4-3.6-3.9-3.6h-2.6l0,7.4   H236.9z"/>
	<path id="path3013" d="M259.9,53.8c1.3,1.6,2,3.7,2,6.3c0,2.6-0.7,4.7-2.1,6.4c-1.4,1.7-3.2,2.5-5.3,2.5c-2.1,0-3.9-0.9-5.4-2.6   c-1.5-1.7-2.2-3.9-2.2-6.4c0-2.5,0.8-4.6,2.2-6.3c1.4-1.6,3.2-2.4,5.4-2.4C256.8,51.3,258.5,52.1,259.9,53.8z M254.5,68.2   c1.5,0,2.7-0.7,3.5-2.2c0.8-1.5,1.2-3.4,1.2-5.8c0-2.4-0.3-4.3-1-5.7c-0.8-1.6-2.1-2.4-3.8-2.4c-1.7,0-2.9,0.8-3.7,2.3   c-0.7,1.3-1,3.2-1,5.8C249.6,65.5,251.3,68.2,254.5,68.2z"/>
	<path id="path3015" d="M141.3,87.4c0,2.3-0.8,4.3-2.3,5.9c-1.5,1.7-3.3,2.4-5.2,2.4c-3-0.1-5.8-0.1-8.4-0.1v-0.8h2.3V79.5h-2.3   v-0.8c1.5,0.1,2.8,0.1,3.9,0.1c1.1,0,2.6,0,4.6,0c2.3,0,4.1,0.8,5.5,2.3C140.6,82.7,141.3,84.8,141.3,87.4L141.3,87.4z M137.5,92.6   c0.8-1.3,1.2-3,1.2-5.3c0-2.3-0.3-4-1-5.2c-0.8-1.6-2.1-2.4-3.9-2.6c-1.5-0.1-2.8,0-3.9,0.1v15.3c1.1,0.1,1.9,0.1,2.5,0.1   c0.6,0,1,0,1.4,0C135.5,94.8,136.7,94,137.5,92.6L137.5,92.6z"/>
	<path id="path3017" d="M157.8,89.8h0.8l-0.3,5.9h-14.3v-0.8h2.3V79.5h-2.3v-0.8h13.9l0,5h-0.8c-0.1-1.4-0.5-2.5-1.2-3.1   c-0.7-0.7-1.8-1-3.3-1l-4.2-0.1v7.1h3c0.7,0,1.2-0.2,1.6-0.6c0.4-0.5,0.6-1.3,0.6-2.3h0.8v6.8h-0.8c0-1-0.2-1.7-0.6-2.3   c-0.4-0.5-0.9-0.8-1.5-0.8h-3v7.4l4.6-0.1c0.5,0,1-0.1,1.7-0.4c0.6-0.2,1.1-0.5,1.4-0.8C157.2,92.7,157.8,91.5,157.8,89.8   L157.8,89.8z"/>
	<path id="path3019" d="M173.9,89.8h0.8l-0.3,5.9H161v-0.8h2.3V79.5H161v-0.8h6.8v0.8h-2.3v15.4l3.8-0.1c0.4,0,1-0.1,1.6-0.4   c0.7-0.2,1.1-0.5,1.4-0.8C173.4,92.7,173.9,91.5,173.9,89.8L173.9,89.8z"/>
	<path id="path3021" d="M189.8,89.8h0.8l-0.3,5.9h-13.4v-0.8h2.3V79.5h-2.3v-0.8h6.8v0.8h-2.3v15.4l3.8-0.1c0.4,0,1-0.1,1.6-0.4   c0.6-0.2,1.1-0.5,1.4-0.8C189.2,92.7,189.7,91.5,189.8,89.8z"/>
	<path id="path3023" d="M195.8,78.4c0.6,0,1.1,0.3,1.5,0.8c0.4,0.5,0.5,1.1,0.5,1.8c0,0.6-0.3,1.4-1,2.1c-0.6,0.8-1.2,1.3-1.9,1.6   l-0.3-0.5c0.4-0.2,0.9-0.5,1.4-1.1c0.5-0.6,0.7-1.1,0.7-1.5c0-0.3-0.1-0.4-0.4-0.4l-0.8,0.1c-0.9-0.1-1.4-0.5-1.4-1.2   C194.2,78.9,194.8,78.4,195.8,78.4L195.8,78.4z"/>
	<path id="path3025" d="M208.4,94.9v0.8h-7v-0.8h2.3V79.5h-2.3v-0.8h7v0.8h-2.3v15.4H208.4z"/>
	<path id="path3027" d="M226.8,78.8v0.8c-0.9,0-1.5,0.1-1.7,0.2c-0.4,0.4-0.6,1.1-0.6,1.9l0,14.4H224l-10.4-16v12.7   c0,0.9,0.2,1.5,0.6,1.9c0.2,0.2,0.7,0.2,1.7,0.2v0.8h-5.4v-0.8c0.9,0,1.5-0.1,1.6-0.2c0.5-0.4,0.7-1,0.7-1.9V80.1   c-0.1-0.4-0.3-0.6-0.7-0.6h-1.4v-0.8h4.9l8.1,12.6v-9.7c0-0.8-0.2-1.5-0.7-1.9c-0.2-0.1-0.7-0.2-1.6-0.2v-0.8   C221.4,78.8,226.8,78.8,226.8,78.8z"/>
	<path id="path3029" d="M243.2,78.8l0.1,5h-0.7c-0.1-1.4-0.5-2.4-1.1-3.1c-0.6-0.7-1.8-1-3.4-1.1l-1.1-0.1v15.4h2.3v0.8h-6.8v-0.8   h2.3V79.5l-1.1,0.1c-1.6,0.1-2.7,0.4-3.3,1c-0.6,0.6-1,1.7-1.2,3.1h-0.7l0.1-5L243.2,78.8L243.2,78.8L243.2,78.8z"/>
	<path id="path3031" d="M258.9,89.8h0.8l-0.3,5.9h-14.3v-0.8h2.3V79.5h-2.3v-0.8H259l0,5h-0.8c-0.1-1.4-0.5-2.5-1.2-3.1   c-0.7-0.7-1.8-1-3.3-1l-4.2-0.1v7.1h3c0.7,0,1.2-0.2,1.6-0.6c0.4-0.5,0.6-1.3,0.6-2.3h0.8v6.8h-0.8c0-1-0.2-1.7-0.6-2.3   c-0.4-0.5-0.9-0.8-1.5-0.8h-3v7.4l4.6-0.1c0.5,0,1-0.1,1.7-0.4c0.6-0.2,1.1-0.5,1.4-0.8C258.3,92.7,258.8,91.5,258.9,89.8z"/>
	<path id="path3033" d="M272.5,94.4l-4.7-6.7h-1.5l0,7.3h2.3v0.8h-6.8v-0.8h2.3V79.5h-2.3v-0.8h7.4c2,0,3.5,0.4,4.5,1.2   c1,0.8,1.5,1.8,1.5,3.1c0,1.3-0.5,2.4-1.4,3.2c-0.9,0.7-2,1.2-3.5,1.3l5,6.8c0.3,0.3,0.8,0.5,1.7,0.6v0.7c-1.2,0-3.1,0-5.7,0l0-0.8   h0.7c0.2-0.1,0.3-0.1,0.3-0.3C272.6,94.5,272.6,94.4,272.5,94.4z M268.5,86.9c3,0,4.4-1.3,4.4-3.9c-0.1-2.4-1.4-3.6-3.9-3.6h-2.6   l0,7.4L268.5,86.9C268.5,86.9,268.5,86.9,268.5,86.9z"/>
	<path id="path3035" d="M294.5,78.8v0.8c-1,0-1.5,0.1-1.7,0.2c-0.4,0.4-0.6,1.1-0.6,1.9l0.1,14.4h-0.6l-10.4-16v12.7   c0,0.9,0.2,1.5,0.6,1.9c0.2,0.2,0.7,0.2,1.7,0.2v0.8h-5.4v-0.8c0.9,0,1.5-0.1,1.6-0.2c0.5-0.4,0.7-1,0.7-1.9V80.1   c0-0.4-0.3-0.6-0.7-0.6h-1.4v-0.8h4.9l8.1,12.6v-9.7c0-0.8-0.2-1.5-0.7-1.9c-0.2-0.1-0.7-0.2-1.6-0.2v-0.8   C289.1,78.8,294.5,78.8,294.5,78.8z"/>
	<path id="path3037" d="M309.4,80.8c1.3,1.6,2,3.7,2,6.3c0,2.6-0.7,4.7-2.1,6.4c-1.4,1.7-3.2,2.5-5.3,2.5c-2.1,0-3.9-0.9-5.4-2.6   c-1.5-1.7-2.2-3.9-2.2-6.4c0-2.5,0.8-4.6,2.2-6.3c1.4-1.6,3.2-2.4,5.5-2.4C306.3,78.3,308.1,79.1,309.4,80.8L309.4,80.8z M304,95.2   c1.5,0,2.7-0.7,3.5-2.2c0.8-1.5,1.2-3.4,1.2-5.8c0-2.4-0.3-4.3-1-5.7c-0.8-1.6-2.1-2.4-3.8-2.4c-1.7,0-2.9,0.8-3.7,2.3   c-0.7,1.3-1,3.2-1,5.8C299.2,92.5,300.8,95.2,304,95.2L304,95.2z"/>
</g>
<rect id="rect3039" x="23.5" y="7.8" class="st2" width="23.9" height="70.5"/>
<radialGradient id="rect3046_1_" cx="96.0476" cy="-619.2329" r="45.6179" gradientTransform="matrix(1 0 0 -1 -49.2197 -595.7395)" gradientUnits="userSpaceOnUse">
	<stop offset="0" style="stop-color:#FFFFFF"/>
	<stop offset="1" style="stop-color:#CE0006"/>
</radialGradient>
<rect id="rect3046" x="47" y="7.8" class="st3" width="23.5" height="70.5"/>
</svg>